<svg width="20" height="20" viewBox="0 0 20 20" fill="none" xmlns="http://www.w3.org/2000/svg">
<path d="M10.0114 18C10.1183 18 10.2175 18 10.3166 17.968C10.8126 17.856 11.2246 17.504 11.4154 17.024C11.4917 16.832 11.5374 16.616 11.5374 16.4H8.48546C8.48546 16.8243 8.64623 17.2313 8.93241 17.5314C9.21859 17.8314 9.60673 18 10.0114 18ZM14.9709 8.8C14.9709 6.344 13.3381 4.288 11.1559 3.744V3.2C11.1559 2.88174 11.0354 2.57652 10.8207 2.35147C10.6061 2.12643 10.315 2 10.0114 2C9.70791 2 9.4168 2.12643 9.20217 2.35147C8.98753 2.57652 8.86695 2.88174 8.86695 3.2V3.744C6.67716 4.288 5.05198 6.344 5.05198 8.8V13.2L3.52599 14.8V15.6H16.4969V14.8L14.9709 13.2V8.8ZM16.474 8.4H18C17.8856 5.832 16.68 3.576 14.8565 2.12L13.7654 3.264C15.3219 4.4 16.3596 6.28 16.474 8.4ZM6.25751 3.264L5.16643 2.12C3.34287 3.576 2.13734 5.832 2 8.4H3.52599C3.66333 6.28 4.701 4.4 6.25751 3.264Z" fill="#333333"/>
</svg>
