<svg width="20" height="20" viewBox="0 0 20 20" fill="none" xmlns="http://www.w3.org/2000/svg">
<path d="M15.9293 16.4H4.61616V7.6H15.9293V16.4ZM15.9293 3.6H15.1212V2H13.5051V3.6H7.0404V2H5.42424V3.6H4.61616C3.71919 3.6 3 4.32 3 5.2V16.4C3 16.8243 3.17027 17.2313 3.47336 17.5314C3.77645 17.8314 4.18753 18 4.61616 18H15.9293C16.3579 18 16.769 17.8314 17.0721 17.5314C17.3752 17.2313 17.5455 16.8243 17.5455 16.4V5.2C17.5455 4.77565 17.3752 4.36869 17.0721 4.06863C16.769 3.76857 16.3579 3.6 15.9293 3.6ZM13.9333 10.048L13.0768 9.2L9.13333 13.104L7.4202 11.408L6.56364 12.256L9.13333 14.8L13.9333 10.048Z" fill="#333333"/>
</svg>
